<svg xmlns="http://www.w3.org/2000/svg" xmlns:xlink="http://www.w3.org/1999/xlink" version="1.1" x="0px" y="0px" viewBox="-247 370.9 100 125" style="enable-background:new -247 370.9 100 100;" xml:space="preserve"><style type="text/css">
	.st0{fill:#231F20;}
</style><path class="st0" d="M-160.2,399.1h-73.5c-2.8,0-5,2.2-5,5V444c0,2.8,2.2,5,5,5h73.4c2.8,0,5-2.2,5-5v-39.9  C-155.2,401.4-157.5,399.1-160.2,399.1z M-158.6,444c0,0.9-0.7,1.7-1.7,1.7h-73.4c-0.9,0-1.7-0.7-1.7-1.7v-39.9  c0-0.9,0.7-1.7,1.7-1.7h73.4c0.9,0,1.7,0.7,1.7,1.7V444z"/><path class="st0" d="M-228.8,409h3.4v30.1h-3.4V409z"/><path class="st0" d="M-222.1,409h1.7v23.4h-1.7V409z"/><path class="st0" d="M-217.1,409h1.7v23.4h-1.7V409z"/><path class="st0" d="M-212.1,409h5v23.4h-5V409z"/><path class="st0" d="M-202.1,409h1.7v23.4h-1.7V409z"/><path class="st0" d="M-195.4,409h3.4v23.4h-3.4V409z"/><path class="st0" d="M-188.6,409h1.7v23.4h-1.7V409z"/><path class="st0" d="M-177.1,409h3.4v23.4h-3.4V409z"/><rect x="-168.7" y="409" class="st0" width="3.4" height="30.1"/><path class="st0" d="M-182.1,409h1.7v23.4h-1.7V409z"/><rect x="-182.1" y="435.7" class="st0" width="1.7" height="3.4"/><rect x="-177.1" y="435.7" class="st0" width="3.4" height="3.4"/><rect x="-188.6" y="435.7" class="st0" width="1.7" height="3.4"/><rect x="-195.4" y="435.7" class="st0" width="3.4" height="3.4"/><rect x="-202.1" y="435.7" class="st0" width="1.7" height="3.4"/><rect x="-212.1" y="435.7" class="st0" width="5" height="3.4"/><rect x="-217.1" y="435.7" class="st0" width="1.7" height="3.4"/><path class="st0" d="M-222.1,435.7h1.7v3.4h-1.7V435.7z"/><text x="-247" y="485.9" fill="#000000" font-size="5px" font-weight="bold" font-family="'Helvetica Neue', Helvetica, Arial-Unicode, Arial, Sans-serif"></text><text x="-247" y="490.9" fill="#000000" font-size="5px" font-weight="bold" font-family="'Helvetica Neue', Helvetica, Arial-Unicode, Arial, Sans-serif"></text></svg>