<svg xmlns="http://www.w3.org/2000/svg" data-name="Layer 1" viewBox="0 0 90 112.5" x="0px" y="0px"><title>LifeTrap</title><path d="M32.851,34.167H18.9a1,1,0,0,1-1-1V19.216a1,1,0,0,1,1-1H32.851a1,1,0,0,1,1,1V33.167A1,1,0,0,1,32.851,34.167Zm-12.951-2H31.851V20.216H19.9Z"/><path d="M51.976,34.167H38.024a1,1,0,0,1-1-1V19.216a1,1,0,0,1,1-1H51.976a1,1,0,0,1,1,1V33.167A1,1,0,0,1,51.976,34.167Zm-12.951-2H50.976V20.216H39.024Z"/><path d="M71.1,34.167H57.149a1,1,0,0,1-1-1V19.216a1,1,0,0,1,1-1H71.1a1,1,0,0,1,1,1V33.167A1,1,0,0,1,71.1,34.167Zm-12.951-2H70.1V20.216H58.149Z"/><path d="M32.851,52.976H18.9a1,1,0,0,1-1-1V38.024a1,1,0,0,1,1-1H32.851a1,1,0,0,1,1,1V51.976A1,1,0,0,1,32.851,52.976Zm-12.951-2H31.851V39.024H19.9Z"/><path d="M51.976,52.976H38.024a1,1,0,0,1-1-1V38.024a1,1,0,0,1,1-1H51.976a1,1,0,0,1,1,1V51.976A1,1,0,0,1,51.976,52.976Zm-12.951-2H50.976V39.024H39.024Z"/><path d="M71.1,52.976H57.149a1,1,0,0,1-1-1V38.024a1,1,0,0,1,1-1H71.1a1,1,0,0,1,1,1V51.976A1,1,0,0,1,71.1,52.976Zm-12.951-2H70.1V39.024H58.149Z"/><path d="M32.851,71.784H18.9a1,1,0,0,1-1-1V56.833a1,1,0,0,1,1-1H32.851a1,1,0,0,1,1,1V70.784A1,1,0,0,1,32.851,71.784Zm-12.951-2H31.851V57.833H19.9Z"/><path d="M51.976,71.784H38.024a1,1,0,0,1-1-1V56.833a1,1,0,0,1,1-1H51.976a1,1,0,0,1,1,1V70.784A1,1,0,0,1,51.976,71.784Zm-12.951-2H50.976V57.833H39.024Z"/><path d="M71.1,71.784H57.149a1,1,0,0,1-1-1V56.833a1,1,0,0,1,1-1H71.1a1,1,0,0,1,1,1V70.784A1,1,0,0,1,71.1,71.784Zm-12.951-2H70.1V57.833H58.149Z"/><text x="0" y="105" fill="#000000" font-size="5px" font-weight="bold" font-family="'Helvetica Neue', Helvetica, Arial-Unicode, Arial, Sans-serif"></text><text x="0" y="110" fill="#000000" font-size="5px" font-weight="bold" font-family="'Helvetica Neue', Helvetica, Arial-Unicode, Arial, Sans-serif"></text></svg>