<svg xmlns="http://www.w3.org/2000/svg" xmlns:xlink="http://www.w3.org/1999/xlink" version="1.1" x="0px" y="0px" viewBox="0 0 100 125" enable-background="new 0 0 100 100" xml:space="preserve"><path fill-rule="evenodd" clip-rule="evenodd" d="M48.306,23.784c-2.126-3.326-4.96-5.552-8.065-6.798l-2.841-4.921  c0.673,0.113,1.341,0.258,2.003,0.437c3.946,1.066,7.658,3.303,10.597,6.854c2.939-3.551,6.651-5.788,10.597-6.854  c3.893-1.051,8.015-0.952,11.843,0.157c3.829,1.109,7.365,3.23,10.083,6.22c3.282,3.611,5.378,8.465,5.378,14.311  c0,9.742-3.929,19.863-10.202,29.134c-1.943,2.872-4.115,5.665-6.466,8.342l-2.113-3.66c1.897-2.234,3.664-4.547,5.267-6.916  c5.851-8.646,9.515-18.002,9.515-26.899c0-4.777-1.688-8.716-4.331-11.624c-2.219-2.441-5.108-4.173-8.239-5.08  c-3.133-0.907-6.51-0.987-9.702-0.125c-3.833,1.035-7.4,3.449-9.948,7.444c-0.591,0.928-1.822,1.201-2.75,0.61  C48.668,24.249,48.459,24.031,48.306,23.784L48.306,23.784z M22.965,19.286l-2.005-3.473c-1.262,0.887-2.433,1.912-3.482,3.065  c-3.282,3.611-5.378,8.465-5.378,14.311c0,9.742,3.929,19.863,10.202,29.134c6.785,10.026,16.349,19.099,26.636,25.603  c0.685,0.432,1.532,0.395,2.165-0.025c2.776-1.757,5.499-3.701,8.128-5.801l-2.017-3.494c-2.336,1.89-4.751,3.652-7.214,5.263  c-9.422-6.159-18.136-14.544-24.386-23.779C19.764,51.443,16.1,42.087,16.1,33.189c0-4.777,1.688-8.716,4.331-11.624  C21.201,20.719,22.052,19.958,22.965,19.286z"/><path fill-rule="evenodd" clip-rule="evenodd" d="M23.495,7.483c-0.466-0.813-0.187-1.849,0.625-2.316  c0.812-0.466,1.849-0.186,2.315,0.625l50.07,86.725c0.466,0.812,0.186,1.849-0.626,2.314c-0.812,0.467-1.849,0.187-2.315-0.625  L23.495,7.483z"/><text x="0" y="115" fill="#000000" font-size="5px" font-weight="bold" font-family="'Helvetica Neue', Helvetica, Arial-Unicode, Arial, Sans-serif">Created by Mourad Mokrane</text><text x="0" y="120" fill="#000000" font-size="5px" font-weight="bold" font-family="'Helvetica Neue', Helvetica, Arial-Unicode, Arial, Sans-serif">from the Noun Project</text></svg>