<svg xmlns="http://www.w3.org/2000/svg" xmlns:xlink="http://www.w3.org/1999/xlink" version="1.1" x="0px" y="0px" viewBox="0 0 29 36.25" style="enable-background:new 0 0 29 29;" xml:space="preserve"><style type="text/css">
	.st0{fill:none;stroke:#000000;stroke-width:2;stroke-miterlimit:10;}
	.st1{fill:none;stroke:#000000;stroke-width:2;stroke-linecap:round;stroke-linejoin:round;stroke-miterlimit:10;}
	.st2{fill:none;stroke:#000000;stroke-miterlimit:10;}
	.st3{fill:none;stroke:#000000;stroke-width:2;stroke-miterlimit:10;stroke-dasharray:1.7411,1.7411;}
	.st4{fill:none;stroke:#000000;stroke-width:2;stroke-linecap:round;stroke-linejoin:round;stroke-dasharray:2.0261,4.0522;}
</style><g><rect x="11.377" y="0.937" transform="matrix(0.7071 -0.7071 0.7071 0.7071 -6.037 12.7543)" width="2" height="25.456"/><g><path d="M21.439,18.483l2.633-2.633l0.354-0.354c2.538-2.538,2.538-6.654,0-9.192s-6.654-2.538-9.192,0L14.88,6.658l-0.354-0.354    c-1.835-1.835-4.493-2.336-6.784-1.518L21.439,18.483z"/><path d="M3.663,9.193c-0.59,2.175-0.037,4.596,1.671,6.304l0.354,0.354l9.192,9.192l2.317-2.317L3.663,9.193z"/></g></g><text x="0" y="44" fill="#000000" font-size="5px" font-weight="bold" font-family="'Helvetica Neue', Helvetica, Arial-Unicode, Arial, Sans-serif">Created by Chameleon Design</text><text x="0" y="49" fill="#000000" font-size="5px" font-weight="bold" font-family="'Helvetica Neue', Helvetica, Arial-Unicode, Arial, Sans-serif">from the Noun Project</text></svg>