<svg xmlns="http://www.w3.org/2000/svg" xmlns:xlink="http://www.w3.org/1999/xlink" version="1.1" x="0px" y="0px" viewBox="0 0 100 125" style="enable-background:new 0 0 100 100;" xml:space="preserve"><path d="M58.8,76.2c0,1.9-1.6,3.5-3.5,3.5h-35c-1.9,0-3.5-1.6-3.5-3.5V23.8c0-1.9,1.6-3.5,3.5-3.5h35c1.9,0,3.5,1.6,3.5,3.5v15.5h3  V23.8c0-3.6-2.9-6.5-6.5-6.5h-35c-3.6,0-6.5,2.9-6.5,6.5v52.3c0,3.6,2.9,6.5,6.5,6.5h35c3.6,0,6.5-2.9,6.5-6.5V60.7h-3V76.2z   M71.3,34.6l-2.1,2.1L81,48.5H33.7v3H81L69.2,63.3l2.1,2.1L86.8,50L71.3,34.6z"/><text x="0" y="115" fill="#000000" font-size="5px" font-weight="bold" font-family="'Helvetica Neue', Helvetica, Arial-Unicode, Arial, Sans-serif"></text><text x="0" y="120" fill="#000000" font-size="5px" font-weight="bold" font-family="'Helvetica Neue', Helvetica, Arial-Unicode, Arial, Sans-serif"></text></svg>