<svg xmlns:dc="http://purl.org/dc/elements/1.1/" xmlns:cc="http://creativecommons.org/ns#" xmlns:rdf="http://www.w3.org/1999/02/22-rdf-syntax-ns#" xmlns:svg="http://www.w3.org/2000/svg" xmlns="http://www.w3.org/2000/svg" xmlns:sodipodi="http://sodipodi.sourceforge.net/DTD/sodipodi-0.dtd" xmlns:inkscape="http://www.inkscape.org/namespaces/inkscape" version="1.1" x="0px" y="0px" viewBox="0 0 100 125"><g transform="translate(0,-952.36218)"><path style="text-indent:0;text-transform:none;direction:ltr;block-progression:tb;baseline-shift:baseline;color:#000000;enable-background:accumulate;" d="m 32.779388,968.39602 c -5.10865,0 -10.23191,2.04424 -14.0625,6.15625 -7.66122,8.22377 -7.65118,21.30214 0,29.53123 l 29.0625,31.2812 a 3.0003,3.0003 0 0 0 4.40625,0 c 9.69773,-10.4101 19.39597,-20.8082 29.09375,-31.2187 7.66121,-8.22373 7.66112,-21.33841 0,-29.56248 -7.66113,-8.22412 -20.43252,-8.22428 -28.09375,0 l -3.1875,3.40625 -3.1875,-3.4375 c -3.83063,-4.112 -8.9226,-6.15625 -14.03125,-6.15625 z m 0,5.84375 c 3.46092,0 6.92035,1.46939 9.65625,4.40625 l 5.375,5.78125 a 3.0003,3.0003 0 0 0 4.40625,0 l 5.34375,-5.75 c 5.47179,-5.87392 13.84079,-5.8738 19.3125,0 5.47172,5.87379 5.47163,15.50161 0,21.37503 -8.9591,9.6175 -17.91584,19.2264 -26.875,28.8437 l -26.875,-28.875 c -5.46898,-5.88206 -5.47162,-15.50159 0,-21.37498 2.73585,-2.93685 6.19533,-4.40625 9.65625,-4.40625 z" fill="#000000" fill-opacity="1" stroke="none" marker="none" visibility="visible" display="inline" overflow="visible"/></g><text x="0" y="115" fill="#000000" font-size="5px" font-weight="bold" font-family="'Helvetica Neue', Helvetica, Arial-Unicode, Arial, Sans-serif"></text><text x="0" y="120" fill="#000000" font-size="5px" font-weight="bold" font-family="'Helvetica Neue', Helvetica, Arial-Unicode, Arial, Sans-serif"></text></svg>