<svg xmlns="http://www.w3.org/2000/svg" data-name="Layer 1" viewBox="0 0 100 125" x="0px" y="0px"><title>44</title><g data-name="Group"><path data-name="Compound Path" d="M93.4,29.1v-1l-8.8-15a3,3,0,0,0-2.6-1.5H20.1a3,3,0,0,0-2.5,1.3L7.1,27.9h0l-.2.4H6.8v.7a3,3,0,0,0,0,.4h0v4.5a9.7,9.7,0,0,0,6,9V85.3a3,3,0,0,0,3,3H84.4a3,3,0,0,0,3-3V43.1a9.7,9.7,0,0,0,6-9v-5ZM81.4,82.3H74V56.5a3,3,0,0,0-3-3H52.3a3,3,0,0,0-3,3V82.3H18.6V43.6A9.7,9.7,0,0,0,22,42.1,11.9,11.9,0,0,0,41,43.5a11.9,11.9,0,0,0,18,0A11.9,11.9,0,0,0,78,42.1a9.7,9.7,0,0,0,3.4,1.5Z"/><rect data-name="Path" x="24" y="53.5" width="20.9" height="17.36" rx="3" ry="3"/></g><text x="0" y="115" fill="#000000" font-size="5px" font-weight="bold" font-family="'Helvetica Neue', Helvetica, Arial-Unicode, Arial, Sans-serif">Created by Astonish</text><text x="0" y="120" fill="#000000" font-size="5px" font-weight="bold" font-family="'Helvetica Neue', Helvetica, Arial-Unicode, Arial, Sans-serif">from the Noun Project</text></svg>