<svg xmlns="http://www.w3.org/2000/svg" xmlns:xlink="http://www.w3.org/1999/xlink" version="1.1" x="0px" y="0px" viewBox="0 0 64 80" enable-background="new 0 0 64 64" xml:space="preserve"><g><g><path d="M56.537,25h-4.738c-0.243-0.683-0.53-1.368-0.857-2.05l3.356-3.357c0.649-0.649,1.013-1.509,1.022-2.419    c0.011-0.92-0.339-1.781-0.984-2.427l-5.092-5.092c-1.284-1.284-3.542-1.267-4.846,0.038l-3.351,3.351    c-0.681-0.328-1.368-0.616-2.057-0.862V7.455C38.991,5.55,37.466,4,35.592,4h-7.201c-1.874,0-3.399,1.55-3.399,3.455v4.727    c-0.688,0.246-1.376,0.534-2.057,0.862l-3.35-3.35c-1.305-1.306-3.562-1.322-4.847-0.039l-5.092,5.092    c-1.325,1.325-1.308,3.5,0.039,4.847l3.355,3.356c-0.327,0.682-0.614,1.367-0.857,2.05H7.446c-1.905,0-3.455,1.525-3.455,3.399    v7.201c0,1.874,1.55,3.399,3.455,3.399h4.751c0.245,0.684,0.53,1.365,0.855,2.039l-3.367,3.367    c-0.649,0.649-1.014,1.509-1.023,2.42c-0.011,0.921,0.339,1.782,0.984,2.427l5.092,5.092c1.284,1.284,3.542,1.268,4.847-0.039    l3.374-3.374c0.675,0.324,1.354,0.609,2.032,0.852v4.763c0,1.904,1.525,3.454,3.399,3.454h7.201c1.874,0,3.399-1.55,3.399-3.454    v-4.763c0.678-0.242,1.357-0.527,2.032-0.852l3.375,3.375c1.304,1.305,3.562,1.322,4.846,0.038l5.092-5.092    c0.646-0.645,0.995-1.506,0.984-2.426c-0.01-0.911-0.373-1.771-1.022-2.42l-3.368-3.368c0.325-0.674,0.61-1.355,0.855-2.039h4.752    c1.904,0,3.454-1.525,3.454-3.399v-7.201C59.991,26.525,58.441,25,56.537,25z M57.991,35.601c0,0.771-0.652,1.399-1.454,1.399    h-5.471c-0.437,0-0.822,0.283-0.954,0.699c-0.324,1.029-0.757,2.062-1.286,3.072c-0.203,0.387-0.131,0.861,0.179,1.171    l3.879,3.879c0.277,0.277,0.433,0.643,0.437,1.028c0.005,0.377-0.137,0.728-0.398,0.989l-5.092,5.092    c-0.531,0.528-1.469,0.511-2.018-0.038l-3.885-3.885c-0.31-0.309-0.782-0.382-1.17-0.18c-1.017,0.53-2.049,0.962-3.066,1.282    c-0.417,0.131-0.7,0.518-0.7,0.954v5.481c0,0.802-0.628,1.454-1.399,1.454h-7.201c-0.771,0-1.399-0.652-1.399-1.454v-5.481    c0-0.437-0.283-0.823-0.7-0.954c-1.018-0.32-2.05-0.752-3.066-1.282c-0.146-0.076-0.305-0.113-0.463-0.113    c-0.259,0-0.515,0.101-0.707,0.293l-3.884,3.884c-0.55,0.55-1.491,0.567-2.019,0.039l-5.092-5.092    c-0.262-0.262-0.403-0.612-0.398-0.989c0.004-0.386,0.159-0.751,0.438-1.029l3.878-3.878c0.31-0.31,0.382-0.784,0.179-1.171    c-0.529-1.01-0.962-2.043-1.286-3.072C13.738,37.283,13.353,37,12.916,37h-5.47c-0.803,0-1.455-0.628-1.455-1.399v-7.201    C5.991,27.628,6.644,27,7.446,27h5.457c0.438,0,0.824-0.284,0.954-0.701c0.319-1.021,0.753-2.058,1.288-3.083    c0.202-0.388,0.129-0.861-0.18-1.17L11.1,18.18c-0.567-0.567-0.585-1.473-0.039-2.019l5.092-5.092    c0.527-0.527,1.469-0.51,2.019,0.039l3.86,3.86c0.31,0.31,0.784,0.381,1.171,0.179c1.019-0.533,2.058-0.969,3.089-1.293    c0.417-0.131,0.7-0.518,0.7-0.954V7.455C26.991,6.652,27.619,6,28.391,6h7.201c0.771,0,1.399,0.652,1.399,1.455V12.9    c0,0.437,0.283,0.823,0.7,0.954c1.031,0.324,2.07,0.76,3.089,1.293c0.385,0.202,0.86,0.131,1.171-0.179l3.861-3.861    c0.549-0.55,1.486-0.566,2.018-0.038l5.092,5.092c0.546,0.546,0.528,1.451-0.038,2.018l-3.867,3.867    c-0.309,0.309-0.382,0.782-0.18,1.17c0.536,1.025,0.969,2.062,1.288,3.083C50.255,26.716,50.642,27,51.079,27h5.458    c0.802,0,1.454,0.628,1.454,1.399V35.601z"/><path d="M31.991,19.982c-6.617,0-12,5.383-12,12s5.383,12,12,12s12-5.383,12-12S38.608,19.982,31.991,19.982z M31.991,41.982    c-5.514,0-10-4.486-10-10s4.486-10,10-10s10,4.486,10,10S37.505,41.982,31.991,41.982z"/></g></g><text x="0" y="79" fill="#000000" font-size="5px" font-weight="bold" font-family="'Helvetica Neue', Helvetica, Arial-Unicode, Arial, Sans-serif"></text><text x="0" y="84" fill="#000000" font-size="5px" font-weight="bold" font-family="'Helvetica Neue', Helvetica, Arial-Unicode, Arial, Sans-serif"></text></svg>