<svg xmlns="http://www.w3.org/2000/svg" xmlns:xlink="http://www.w3.org/1999/xlink" version="1.1" x="0px" y="0px" viewBox="0 0 100 125" enable-background="new 0 0 100 100" xml:space="preserve"><path d="M94.863,39.683c-0.364-1.124-1.272-1.882-3.996-2.136l-24.856-2.306c-1.476-0.137-2.286-0.726-2.872-2.086l-9.873-22.927  C52.184,7.715,51.184,7.087,50,7.087c-1.183,0-2.184,0.628-3.267,3.143L36.86,33.157c-0.586,1.36-1.396,1.949-2.873,2.086  L9.132,37.548C6.409,37.802,5.5,38.56,5.135,39.684c-0.366,1.125-0.078,2.271,1.979,4.078l18.752,16.474  c1.114,0.979,1.423,1.932,1.098,3.378l-5.49,24.351c-0.601,2.67-0.16,3.768,0.797,4.462c0.957,0.695,2.136,0.775,4.489-0.622  l21.465-12.744c1.275-0.758,2.275-0.758,3.55,0l21.463,12.744c2.354,1.396,3.533,1.316,4.49,0.621s1.396-1.792,0.797-4.462  l-5.49-24.351c-0.325-1.446-0.016-2.398,1.098-3.379l18.752-16.473C94.941,41.954,95.23,40.808,94.863,39.683z"/><text x="0" y="115" fill="#000000" font-size="5px" font-weight="bold" font-family="'Helvetica Neue', Helvetica, Arial-Unicode, Arial, Sans-serif"></text><text x="0" y="120" fill="#000000" font-size="5px" font-weight="bold" font-family="'Helvetica Neue', Helvetica, Arial-Unicode, Arial, Sans-serif">\</text></svg>