<svg xmlns="http://www.w3.org/2000/svg" xmlns:xlink="http://www.w3.org/1999/xlink" version="1.1" x="0px" y="0px" viewBox="0 0 96 120" style="enable-background:new 0 0 96 96;" xml:space="preserve"><style type="text/css">
	.st0{display:none;}
	.st1{display:inline;}
</style><g class="st0"><path class="st1" d="M80.5,38.4c-0.4-3-2.9-5.3-6-5.2l-11.2,0.9c-0.1,0,0.1,0,0,0l-1.8-0.2c-0.6-0.1-0.9-0.7-0.7-1.2   c2.9-6.4,5.2-12.3,3.2-16.4c-1-1.9-2.8-3.3-5.5-3.9c-0.9-0.2-1.7,0.3-2,1.1c0,0.1-1.9,4.7-6.7,11.9c-0.1,0.1-0.2,0.2-0.3,0.3   c-4.2,2.6-8.1,5.2-10.2,12.5c-0.1,0.4-0.5,0.6-0.8,0.6h-4.2c-0.5,0-0.9-0.4-0.9-0.9v-2.5c0-0.5-0.4-0.9-0.9-0.9H15.4   c-0.5,0-0.9,0.4-0.9,0.9v34c0,0.5,0.4,0.9,0.9,0.9h17.2c0.5,0,0.9-0.4,0.9-0.9v-1.6c0-0.5,0.4-0.9,0.9-0.9h7.3   c0.2,0,0.4,0.1,0.5,0.2l8.1,6.2c0.3,0.3,0.7,0.4,1.1,0.4h20.8c2.6,0,4.7-1.7,5.2-4.1l1.4-6l2.2-9c0-0.1-0.1,0.2,0,0l0.4-8.7   c0-0.1,0,0.1,0,0L80.5,38.4z M18.1,65.8v-27c0-0.5,0.4-0.9,0.9-0.9h10.3c0.5,0,0.9,0.4,0.9,0.9l0.2,27c0,0.5-0.4,0.9-0.9,0.9H19   C18.5,66.7,18.1,66.3,18.1,65.8z M74.9,61.3l-7.4,0.1c-0.5,0-0.9,0.4-0.9,0.9v1.8c0,0.5,0.4,0.9,0.9,0.9l6.1-0.1   c0.6,0,1,0.5,0.9,1.1l-0.6,2.9c-0.2,0.8-0.9,1.4-1.8,1.4H52.3c-0.2,0-0.4-0.1-0.5-0.2l-8.2-6.2c-0.3-0.3-0.7-0.4-1.1-0.4h-8.1   c-0.5,0-0.9-0.4-0.9-0.9V43.1c0-0.5,0.4-0.9,0.9-0.9h3.7c1,0,1.9,0,2.6-0.1c0.8-0.1,1.4-0.6,1.6-1.4c1.7-7.7,5-9.7,9.6-12.5   c0.2-0.2,0.4-0.4,0.5-0.5c3.2-4.7,5.2-8.4,6.3-10.7c0.2-0.5,0.9-0.7,1.4-0.3c0.3,0.3,0.6,0.6,0.8,1c1.4,3-1.2,9-3.8,14.7   c-0.2,0.4-0.6,0.6-1,0.5l0,0c-0.5-0.1-1,0.3-1.1,0.8l-0.3,1.7c-0.1,0.5,0.3,0.9,0.7,1l7.5,1.2c0.3,0,0.5,0,0.8,0l11.1-1   c1.1,0,2,0.9,2.2,2l0.4,4.2c0.1,0.5-0.3,1-0.9,1l-9.1,0.1c-0.5,0-0.9,0.4-0.9,0.9v1.8c0,0.5,0.4,0.9,0.9,0.9l9.3-0.1   c0.5,0,0.9,0.4,0.9,0.9l-0.2,3.3c0,0.5-0.4,0.8-0.9,0.8l-9.1,0.1c-0.5,0-0.9,0.4-0.9,0.9v1.8c0,0.5,0.4,0.9,0.9,0.9l8.2-0.1   c0.6,0,1,0.5,0.9,1.1l-0.9,3.5C75.7,61,75.3,61.3,74.9,61.3z"/></g><g class="st0"><g class="st1"><path d="M15.6,34.5h16.9c0.6,0,1,0.5,1,1v33.7c0,0.6-0.5,1-1,1H15.6c-0.6,0-1-0.5-1-1V35.5C14.6,34.9,15,34.5,15.6,34.5z"/><path d="M80.6,38.4c-0.4-3-2.9-5.3-6-5.2l0,0l-11.2,0.9c-0.1,0,0.1,0,0,0l-1.7-0.2c-0.6-0.1-0.9-0.7-0.7-1.3    c2.9-6.4,5.2-12.3,3.2-16.4c-1-1.9-2.8-3.3-5.5-3.9c-0.9-0.2-1.7,0.3-2,1.1c0,0.1-1.9,4.7-6.7,11.9c-0.1,0.1-0.2,0.2-0.3,0.3    c-4.2,2.6-8.1,5.2-10.2,12.5c-0.1,0.4-0.5,0.6-0.8,0.6c-0.4,0-0.9,0-1.4,0s-0.9,0.4-0.9,0.9v26.5c0,0.5,0.4,0.9,0.9,0.9h4.4    c0.2,0,0.4,0.1,0.5,0.2l8.1,6.2c0.3,0.3,0.7,0.4,1.1,0.4h20.8c2.4,0,4.6-1.8,5.1-4.1l1.4-6.1c0,0,2.2-8.9,2.2-9l0.4-8.7l0,0    L80.6,38.4z"/></g></g><g class="st0"><path class="st1" d="M80.5,38.4c-0.4-3-2.9-5.3-6-5.2l0,0L63.3,34c-0.1,0-0.1,0-0.2,0l-1.5-0.2c-0.6-0.1-0.9-0.7-0.7-1.2   c2.9-6.4,5.2-12.3,3.2-16.4c-1-1.9-2.8-3.3-5.5-3.9c-0.9-0.2-1.7,0.3-2,1.1c0,0.1-1.9,4.7-6.7,11.9c-0.1,0.1-0.2,0.2-0.3,0.3   c-4.2,2.6-8.1,5.2-10.2,12.5c-0.1,0.4-0.5,0.6-0.8,0.6c-1.1,0-3.1-0.1-4.3-0.1c-0.5,0-0.9-0.4-0.9-0.9v-2.5c0-0.5-0.4-0.9-0.9-0.9   l-17.2,0.1c-0.5,0-0.9,0.4-0.9,0.9v34.1c0,0.5,0.4,0.9,0.9,0.9l17.2-0.1c0.5,0,0.9-0.4,0.9-0.9v-1.6c0-0.5,0.4-0.9,0.9-0.9l7.4,0.1   c0.2,0,0.4,0.1,0.5,0.2l8.1,6.2c0.3,0.3,0.7,0.4,1.1,0.4h20.8c2.4,0,4.6-1.8,5.1-4.1l1.4-6.1l2.2-8.6c0-0.1,0-0.3,0.1-0.4l0.4-8.6   c0-0.1,0-0.1,0-0.2L80.5,38.4z M63.5,52.7c-0.9,0-1.2,0.1-1.2-2.3c0-2.7,0.5-2.7,1.2-2.7l13.2-0.2c0.5,0,0.9,0.4,0.9,0.9l-0.2,3.3   c0,0.5-0.4,0.8-0.9,0.8L63.5,52.7z M77,38.8l0.4,4.2c0.1,0.5-0.4,1-0.9,1H62.4c-0.9,0-1.2,0-1.2-2.6c0-1.5,0.6-3.7,2-3.8   c0,0,11.7-0.9,11.8-0.9C75.9,36.7,76.9,37.7,77,38.8z M18,66.7V38.9c0-0.5,0.4-0.9,0.9-0.9h10.3c0.5,0,0.9,0.4,0.9,0.9l0.2,27   c0,0.5-0.4,0.9-0.9,0.9L18,66.7L18,66.7z M43.6,63.8c-0.4-0.3-0.7-0.4-1.1-0.4l-8.2-0.1c-0.5,0-0.9-0.4-0.9-0.9V43   c0-0.5,0.4-0.9,0.9-0.9c1.9,0,5.4,0.1,6.4,0c0.8-0.1,1.4-0.6,1.6-1.4c1.7-7.7,5-9.7,9.6-12.5c0.2-0.1,0.4-0.4,0.5-0.5   c3.2-4.7,5.2-8.4,6.3-10.7c0.2-0.5,0.9-0.7,1.3-0.3c0.4,0.3,0.6,0.6,0.8,1c1.6,3.2-1.6,9.9-4.4,15.9l-0.2,0.5   c-0.1,0.2-0.2,0.4-0.2,0.6c-0.7,8.8-3.1,12.8-5,14.6c-1.2,1.1-2.3,1.5-3,1.7c-0.4,0.1-0.7,0.4-0.7,0.9v1.8c0,0.6,0.5,1,1,0.9   c1.1-0.2,3-0.8,4.6-2.1c1.7-1.4,3.1-3.5,4.2-6.1c0.2-0.6,1-0.8,1.4-0.3c0.1,0.1,0.1,0.1,0.2,0.2c0.2,0.2,0.3,0.6,0.2,0.9   c-0.4,1.2-0.4,2.5-0.4,3.2c0,0.8,0,2.2,0.5,3.4c0.1,0.3,0.1,0.5-0.1,0.8c-0.7,1-1,2.4-1,4.3c0,1.3,0.1,2.3,0.4,3.2   c0.1,0.3,0,0.6-0.1,0.8c-0.8,1-1.3,2.7-1.3,4.9c0,0.6,0,1.1,0.1,1.6s-0.4,1-0.9,1h-4.2c-0.2,0-0.4-0.1-0.5-0.2L43.6,63.8z    M72.2,70.2H61.8c-0.5,0-1.1,0-1.1-2.6c0-2.7,0.6-2.7,1.1-2.7h11.9c0.6,0,1,0.5,0.9,1.1L74,68.9C73.7,69.6,73,70.2,72.2,70.2z    M75.6,60.6c-0.1,0.4-0.4,0.6-0.8,0.6l-12.1,0.2c-0.5,0-1.1,0-1.1-2.6s0.4-2.6,1.1-2.6l13-0.4c0.6,0,1,0.5,0.9,1.1L75.6,60.6z"/></g><g class="st0"><path class="st1" d="M81.4,49.2C81.4,49.2,81.4,49.3,81.4,49.2L81,40.5c-0.1-0.2,0,0.1,0,0l-2.2-9l-1.4-6c-0.5-2.5-2.6-4.1-5.2-4.1   H51.4c-0.4,0-0.8,0.1-1.1,0.4L42.2,28c-0.2,0.1-0.3,0.2-0.5,0.2h-7.3c-0.5,0-0.9-0.4-0.9-0.9v-1.6c0-0.5-0.4-0.9-0.9-0.9H15.4   c-0.5,0-0.9,0.4-0.9,0.9v34c0,0.5,0.4,0.9,0.9,0.9h17.2c0.5,0,0.9-0.4,0.9-0.9v-2.5c0-0.5,0.4-0.9,0.9-0.9h4.2   c0.4,0,0.7,0.3,0.8,0.6c2.1,7.3,6,9.9,10.2,12.5c0.1,0.1,0.2,0.2,0.3,0.3c4.8,7.2,6.7,11.8,6.7,11.9c0.4,0.8,1.1,1.2,2,1.1   c2.7-0.6,4.6-1.9,5.5-3.9c2-4.2-0.3-10.1-3.2-16.4c-0.2-0.5,0.1-1.1,0.7-1.2l1.8-0.2c0.1,0-0.1,0,0,0l11.2,0.9   c3.1,0.1,5.6-2.2,6-5.2L81.4,49.2z M19,28.3h10.4c0.5,0,0.9,0.4,0.9,0.9l-0.2,27c0,0.5-0.4,0.9-0.9,0.9H19c-0.5,0-0.9-0.4-0.9-0.9   v-27C18.1,28.7,18.5,28.3,19,28.3z M75.8,34.4l0.9,3.5c0.1,0.6-0.3,1.1-0.9,1.1l-8.2-0.1c-0.5,0-0.9,0.4-0.9,0.9v1.8   c0,0.5,0.4,0.9,0.9,0.9l9.1,0.1c0.5,0,0.8,0.4,0.9,0.8l0.2,3.3c0,0.5-0.4,0.9-0.9,0.9l-9.3-0.1c-0.5,0-0.9,0.4-0.9,0.9v1.8   c0,0.5,0.4,0.9,0.9,0.9l9.1,0.1c0.5,0,0.9,0.5,0.9,1l-0.6,4c-0.2,1.1-1.1,2-2.2,2l-11.1-1c-0.3,0-0.5,0-0.8,0l-7.5,1.2   c-0.5,0.1-0.8,0.5-0.7,1l0.3,1.7c0.1,0.5,0.6,0.9,1.1,0.8l0,0c0.4-0.1,0.8,0.2,1,0.5c2.6,5.7,5.3,11.8,3.8,14.7   c-0.2,0.4-0.5,0.7-0.8,1c-0.4,0.4-1.1,0.2-1.4-0.3c-1.1-2.3-3.1-6-6.3-10.7c-0.1-0.2-0.4-0.4-0.5-0.5C47.4,64,44,62,42.4,54.3   c-0.2-0.8-0.8-1.3-1.6-1.4c-0.7-0.1-1.7-0.1-2.6-0.1h-3.7c-0.5,0-0.9-0.4-0.9-0.9V32.5c0-0.5,0.4-0.9,0.9-0.9h8.1   c0.4,0,0.8-0.1,1.1-0.4l8.2-6.2c0.2-0.1,0.3-0.2,0.5-0.2h19.8c0.9,0,1.6,0.6,1.8,1.4l0.6,2.9c0.1,0.6-0.3,1.1-0.9,1.1l-6.1-0.1   c-0.5,0-0.9,0.4-0.9,0.9v1.8c0,0.5,0.4,0.9,0.9,0.9l7.4,0.1C75.3,33.7,75.7,34,75.8,34.4z"/></g><g class="st0"><g class="st1"><path d="M14.6,59.5V25.8c0-0.6,0.5-1,1-1h16.9c0.6,0,1,0.5,1,1v33.7c0,0.6-0.5,1-1,1H15.6C15,60.5,14.6,60.1,14.6,59.5z"/><path d="M81.4,49.2C81.4,49.2,81.4,49.3,81.4,49.2L81,40.5c0-0.1-2.2-9-2.2-9l-1.4-6.1c-0.5-2.4-2.7-4.1-5.1-4.1H51.4    c-0.4,0-0.8,0.1-1.1,0.4l-8.1,6.2c-0.2,0.1-0.3,0.2-0.5,0.2h-4.4c-0.5,0-0.9,0.4-0.9,0.9v26.5c0,0.5,0.4,0.9,0.9,0.9    c0.4,0,1,0,1.4,0s0.7,0.3,0.8,0.6c2.1,7.3,6,9.9,10.2,12.5c0.1,0.1,0.2,0.2,0.3,0.3c4.8,7.2,6.7,11.8,6.7,11.9    c0.4,0.8,1.1,1.2,2,1.1c2.7-0.6,4.6-1.9,5.5-3.9c2-4.1-0.3-10-3.2-16.4c-0.3-0.5,0.1-1.2,0.7-1.3l1.7-0.2c0.1,0-0.1,0,0,0    l11.2,0.9l0,0c3.1,0.1,5.6-2.2,6-5.2L81.4,49.2z"/></g></g><g class="st0"><path class="st1" d="M81.5,49.2c0-0.1,0-0.1,0-0.2L81,40.5c-0.1-0.1-0.1-0.3-0.1-0.4l-2.2-8.6l-1.4-6.1c-0.5-2.4-2.7-4.1-5.1-4.1   H51.4c-0.4,0-0.8,0.1-1.1,0.4l-8.1,6.2c-0.2,0.1-0.3,0.2-0.5,0.2l-7.4,0.1c-0.5,0-0.9-0.4-0.9-0.9v-1.6c0-0.5-0.4-0.9-0.9-0.9   l-17.2-0.1c-0.5,0-0.9,0.4-0.9,0.9v34.1c0,0.5,0.4,0.9,0.9,0.9l17.2,0.1c0.5,0,0.9-0.4,0.9-0.9v-2.5c0-0.5,0.4-0.9,0.9-0.9   c1.2,0,3.1-0.1,4.3-0.1c0.4,0,0.7,0.3,0.8,0.6c2.1,7.3,6,9.9,10.2,12.5c0.1,0.1,0.2,0.2,0.3,0.3c4.8,7.2,6.7,11.8,6.7,11.9   c0.4,0.8,1.1,1.2,2,1.1c2.7-0.6,4.6-1.9,5.5-3.9c2-4.1-0.3-10-3.2-16.4c-0.2-0.5,0.1-1.2,0.7-1.2l1.5-0.2c0.1,0,0.1,0,0.2,0   l11.3,0.9l0,0c3.1,0.1,5.6-2.2,6-5.2L81.5,49.2z M76.6,42.6c0.5,0,0.8,0.4,0.9,0.8l0.2,3.3c0,0.5-0.4,0.9-0.9,0.9l-13.2-0.2   c-0.7,0-1.2,0-1.2-2.7c0-2.5,0.4-2.3,1.2-2.3L76.6,42.6z M75,58.2c-0.1,0-11.8-0.9-11.8-0.9c-1.4-0.1-2-2.3-2-3.8   c0-2.6,0.4-2.6,1.2-2.6h14.2c0.5,0,0.9,0.4,0.9,1L77,56.2C76.9,57.3,75.9,58.3,75,58.2z M18,28.2h11.4c0.5,0,0.9,0.4,0.9,0.9   l-0.2,27c0,0.5-0.4,0.9-0.9,0.9H18.9c-0.5,0-0.9-0.4-0.9-0.9V28.2L18,28.2z M51.7,25c0.2-0.1,0.3-0.2,0.5-0.2h4.2   c0.5,0,0.9,0.4,0.9,1c-0.1,0.5-0.1,1-0.1,1.6c0,2.2,0.4,3.8,1.3,4.9c0.2,0.2,0.2,0.5,0.1,0.8c-0.3,0.8-0.4,1.9-0.4,3.2   c0,1.9,0.3,3.3,1,4.3c0.2,0.2,0.2,0.5,0.1,0.8c-0.5,1.2-0.5,2.7-0.5,3.4s0,2,0.4,3.2c0.1,0.3,0,0.6-0.2,0.9   c-0.1,0.1-0.1,0.1-0.2,0.2c-0.4,0.5-1.2,0.3-1.4-0.3c-1.1-2.6-2.5-4.6-4.2-6.1c-1.6-1.4-3.4-1.9-4.6-2.1c-0.5-0.1-1,0.3-1,0.9V43   c0,0.4,0.3,0.8,0.7,0.9c0.7,0.2,1.8,0.6,3,1.7c1.9,1.8,4.3,5.8,5,14.6c0,0.3,0.1,0.4,0.2,0.6l0.2,0.5c2.8,6,6,12.8,4.4,15.9   c-0.2,0.4-0.5,0.8-0.8,1c-0.4,0.4-1.1,0.2-1.3-0.3c-1.1-2.3-3.1-6-6.3-10.7c-0.1-0.2-0.4-0.4-0.5-0.5c-4.6-2.8-7.9-4.8-9.6-12.5   c-0.2-0.8-0.8-1.3-1.6-1.4c-1-0.1-4.5,0-6.4,0c-0.5,0-0.9-0.4-0.9-0.9V32.5c0-0.5,0.4-0.9,0.9-0.9l8.2-0.1c0.4,0,0.7-0.1,1.1-0.4   L51.7,25z M73.9,26.2l0.6,2.9c0.1,0.5-0.3,1.1-0.9,1.1H61.8c-0.4,0-1.1,0-1.1-2.7c0-2.6,0.5-2.6,1.1-2.6h10.5   C73,24.8,73.7,25.4,73.9,26.2z M76.6,37.9c0.2,0.6-0.3,1.1-0.9,1.1l-13-0.4c-0.6,0-1.1,0-1.1-2.6s0.5-2.6,1.1-2.6l12.1,0.2   c0.4,0,0.7,0.3,0.8,0.6L76.6,37.9z"/></g><g class="st0"><path class="st1" d="M14.6,45.8C14.6,45.8,14.6,45.7,14.6,45.8l0.4,8.7c0.1,0.2,0-0.1,0,0l2.2,9l1.4,6c0.5,2.5,2.6,4.1,5.2,4.1   h20.8c0.4,0,0.8-0.1,1.1-0.4l8.1-6.2c0.2-0.1,0.3-0.2,0.5-0.2h7.3c0.5,0,0.9,0.4,0.9,0.9v1.6c0,0.5,0.4,0.9,0.9,0.9h17.2   c0.5,0,0.9-0.4,0.9-0.9v-34c0-0.5-0.4-0.9-0.9-0.9H63.4c-0.5,0-0.9,0.4-0.9,0.9v2.5c0,0.5-0.4,0.9-0.9,0.9h-4.2   c-0.4,0-0.7-0.3-0.8-0.6c-2.1-7.3-6-9.9-10.2-12.5c-0.1-0.1-0.2-0.2-0.3-0.3c-4.8-7.2-6.7-11.8-6.7-11.9c-0.4-0.8-1.1-1.2-2-1.1   c-2.7,0.6-4.6,1.9-5.5,3.9c-2,4.2,0.3,10.1,3.2,16.4c0.2,0.5-0.1,1.1-0.7,1.2L32.6,34c-0.1,0,0.1,0,0,0l-11.2-0.9   c-3.1-0.1-5.6,2.2-6,5.2L14.6,45.8z M77,66.7H66.6c-0.5,0-0.9-0.4-0.9-0.9l0.2-27c0-0.5,0.4-0.9,0.9-0.9H77c0.5,0,0.9,0.4,0.9,0.9   v27C77.9,66.3,77.5,66.7,77,66.7z M20.2,60.6l-0.9-3.5c-0.1-0.6,0.3-1.1,0.9-1.1l8.2,0.1c0.5,0,0.9-0.4,0.9-0.9v-1.8   c0-0.5-0.4-0.9-0.9-0.9l-9.1-0.1c-0.5,0-0.8-0.4-0.9-0.8l-0.2-3.3c0-0.5,0.4-0.9,0.9-0.9l9.3,0.1c0.5,0,0.9-0.4,0.9-0.9v-1.8   c0-0.5-0.4-0.9-0.9-0.9l-9,0.1c-0.5,0-0.9-0.5-0.9-1l0.4-4.2c0.2-1.1,1.1-2,2.2-2l11.1,1c0.3,0,0.5,0,0.8,0l7.5-1.2   c0.5-0.1,0.8-0.5,0.7-1L41,33.8c-0.1-0.5-0.6-0.9-1.1-0.8l0,0c-0.4,0.1-0.8-0.2-1-0.5c-2.6-5.7-5.3-11.8-3.8-14.7   c0.2-0.4,0.5-0.7,0.8-1c0.4-0.4,1.1-0.2,1.4,0.3c1.1,2.3,3.1,6,6.3,10.7c0.1,0.2,0.4,0.4,0.5,0.5C48.6,31,52,33,53.6,40.7   c0.2,0.8,0.8,1.3,1.6,1.4c0.7,0.1,1.7,0.1,2.6,0.1h3.7c0.5,0,0.9,0.4,0.9,0.9v19.4c0,0.5-0.4,0.9-0.9,0.9h-8.1   c-0.4,0-0.8,0.1-1.1,0.4L44.2,70c-0.2,0.1-0.3,0.2-0.5,0.2H23.8c-0.9,0-1.6-0.6-1.8-1.4l-0.6-2.9c-0.1-0.6,0.3-1.1,0.9-1.1l6.1,0.1   c0.5,0,0.9-0.4,0.9-0.9v-1.8c0-0.5-0.4-0.9-0.9-0.9L21,61.2C20.7,61.3,20.3,61,20.2,60.6z"/></g><g class="st0"><g class="st1"><path d="M81.4,35.5v33.7c0,0.6-0.5,1-1,1H63.5c-0.6,0-1-0.5-1-1V35.5c0-0.6,0.5-1,1-1h16.9C81,34.5,81.4,34.9,81.4,35.5z"/><path d="M14.6,45.8C14.6,45.8,14.6,45.7,14.6,45.8l0.4,8.7c0,0.1,2.2,9,2.2,9l1.4,6.1c0.5,2.4,2.7,4.1,5.1,4.1h20.8    c0.4,0,0.8-0.1,1.1-0.4l8.1-6.2c0.2-0.1,0.3-0.2,0.5-0.2h4.4c0.5,0,0.9-0.4,0.9-0.9V39.6c0-0.5-0.4-0.9-0.9-0.9c-0.4,0-1,0-1.4,0    s-0.7-0.3-0.8-0.6c-2.1-7.3-6-9.9-10.2-12.5c-0.1-0.1-0.2-0.2-0.3-0.3c-4.8-7.2-6.7-11.8-6.7-11.9c-0.4-0.8-1.1-1.2-2-1.1    c-2.7,0.6-4.6,1.9-5.5,3.9c-2,4.1,0.3,10,3.2,16.4c0.3,0.5-0.1,1.2-0.7,1.3l-1.7,0.2c-0.1,0,0.1,0,0,0l-11.2-0.9l0,0    c-3.1-0.1-5.6,2.2-6,5.2L14.6,45.8z"/></g></g><g class="st0"><path class="st1" d="M14.5,45.8c0,0.1,0,0.1,0,0.2l0.4,8.6C15,54.7,15,54.9,15,55l2.2,8.6l1.4,6.1c0.5,2.4,2.7,4.1,5.1,4.1h20.8   c0.4,0,0.8-0.1,1.1-0.4l8.1-6.2c0.2-0.1,0.3-0.2,0.5-0.2l7.4-0.1c0.5,0,0.9,0.4,0.9,0.9v1.6c0,0.5,0.4,0.9,0.9,0.9l17.2,0.1   c0.5,0,0.9-0.4,0.9-0.9V35.4c0-0.5-0.4-0.9-0.9-0.9l-17.2-0.1c-0.5,0-0.9,0.4-0.9,0.9v2.5c0,0.5-0.4,0.9-0.9,0.9   c-1.2,0-3.1,0.1-4.3,0.1c-0.4,0-0.7-0.3-0.8-0.6c-2.1-7.3-6-9.9-10.2-12.5c-0.1-0.1-0.2-0.2-0.3-0.3c-4.8-7.2-6.7-11.8-6.7-11.9   c-0.4-0.8-1.1-1.2-2-1.1c-2.7,0.6-4.6,1.9-5.5,3.9c-2,4.1,0.3,10,3.2,16.4c0.2,0.5-0.1,1.2-0.7,1.2L32.9,34c-0.1,0-0.1,0-0.2,0   l-11.3-0.9l0,0c-3.1-0.1-5.6,2.2-6,5.2L14.5,45.8z M19.4,52.4c-0.5,0-0.8-0.4-0.9-0.8l-0.2-3.3c0-0.5,0.4-0.9,0.9-0.9l13.2,0.2   c0.7,0,1.2,0,1.2,2.7c0,2.5-0.4,2.3-1.2,2.3L19.4,52.4z M21,36.8c0.1,0,11.8,0.9,11.8,0.9c1.4,0.1,2,2.3,2,3.8   c0,2.6-0.4,2.6-1.2,2.6H19.5c-0.5,0-0.9-0.4-0.9-1l0.4-4.2C19.1,37.7,20.1,36.7,21,36.8z M78,66.8H66.6c-0.5,0-0.9-0.4-0.9-0.9   l0.2-27c0-0.5,0.4-0.9,0.9-0.9h10.3c0.5,0,0.9,0.4,0.9,0.9V66.8L78,66.8z M44.3,70c-0.2,0.1-0.3,0.2-0.5,0.2h-4.2   c-0.5,0-0.9-0.4-0.9-1c0.1-0.5,0.1-1,0.1-1.6c0-2.2-0.4-3.8-1.3-4.9c-0.2-0.2-0.2-0.5-0.1-0.8c0.3-0.8,0.4-1.9,0.4-3.2   c0-1.9-0.3-3.3-1-4.3c-0.2-0.2-0.2-0.5-0.1-0.8c0.5-1.2,0.5-2.7,0.5-3.4s0-2-0.4-3.2c-0.1-0.3,0-0.6,0.2-0.9   c0.1-0.1,0.1-0.1,0.2-0.2c0.4-0.5,1.2-0.3,1.4,0.3c1.1,2.6,2.5,4.6,4.2,6.1c1.6,1.4,3.4,1.9,4.6,2.1c0.5,0.1,1-0.3,1-0.9V52   c0-0.4-0.3-0.8-0.7-0.9c-0.7-0.2-1.8-0.6-3-1.7c-1.9-1.8-4.3-5.8-5-14.6c0-0.3-0.1-0.4-0.2-0.6l-0.2-0.5c-2.8-6-6-12.8-4.4-15.9   c0.2-0.4,0.5-0.8,0.8-1c0.4-0.4,1.1-0.2,1.3,0.3c1.1,2.3,3.1,6,6.3,10.7c0.1,0.2,0.4,0.4,0.5,0.5c4.6,2.8,7.9,4.8,9.6,12.5   c0.2,0.8,0.8,1.3,1.6,1.4c1,0.1,4.5,0,6.4,0c0.5,0,0.9,0.4,0.9,0.9v19.4c0,0.5-0.4,0.9-0.9,0.9l-8.2,0.1c-0.4,0-0.7,0.1-1.1,0.4   L44.3,70z M22.1,68.8l-0.6-2.9c-0.1-0.5,0.3-1.1,0.9-1.1h11.9c0.4,0,1.1,0,1.1,2.7c0,2.6-0.5,2.6-1.1,2.6H23.8   C23,70.2,22.3,69.6,22.1,68.8z M19.4,57.1c-0.2-0.6,0.3-1.1,0.9-1.1l13,0.4c0.6,0,1.1,0,1.1,2.6s-0.5,2.6-1.1,2.6l-12.1-0.2   c-0.4,0-0.7-0.3-0.8-0.6L19.4,57.1z"/></g><g class="st0"><path class="st1" d="M15.5,56.6c0.4,3,2.9,5.3,6,5.2l11.2-0.9c0.1,0-0.1,0,0,0l1.8,0.2c0.6,0.1,0.9,0.7,0.7,1.2   C32.3,68.7,30,74.6,32,78.7c1,1.9,2.8,3.3,5.5,3.9c0.9,0.2,1.7-0.3,2-1.1c0-0.1,1.9-4.7,6.7-11.9c0.1-0.1,0.2-0.2,0.3-0.3   c4.2-2.6,8.1-5.2,10.2-12.5c0.1-0.4,0.5-0.6,0.8-0.6h4.2c0.5,0,0.9,0.4,0.9,0.9v2.5c0,0.5,0.4,0.9,0.9,0.9h17.2   c0.5,0,0.9-0.4,0.9-0.9v-34c0-0.5-0.4-0.9-0.9-0.9H63.4c-0.5,0-0.9,0.4-0.9,0.9v1.6c0,0.5-0.4,0.9-0.9,0.9h-7.3   c-0.2,0-0.4-0.1-0.5-0.2l-8.1-6.2c-0.3-0.3-0.7-0.4-1.1-0.4H23.8c-2.6,0-4.7,1.7-5.2,4.1l-1.4,6l-2.2,9c0,0.1,0.1-0.2,0,0l-0.4,8.7   c0,0.1,0-0.1,0,0L15.5,56.6z M77.9,29.2v27c0,0.5-0.4,0.9-0.9,0.9H66.8c-0.5,0-0.9-0.4-0.9-0.9l-0.2-27c0-0.5,0.4-0.9,0.9-0.9H77   C77.5,28.3,77.9,28.7,77.9,29.2z M21.1,33.7l7.4-0.1c0.5,0,0.9-0.4,0.9-0.9v-1.8c0-0.5-0.4-0.9-0.9-0.9l-6.1,0.1   c-0.6,0-1-0.5-0.9-1.1l0.6-2.9c0.2-0.8,0.9-1.4,1.8-1.4h19.8c0.2,0,0.4,0.1,0.5,0.2l8.2,6.2c0.3,0.3,0.7,0.4,1.1,0.4h8.1   c0.5,0,0.9,0.4,0.9,0.9v19.4c0,0.5-0.4,0.9-0.9,0.9h-3.7c-1,0-1.9,0-2.6,0.1c-0.8,0.1-1.4,0.6-1.6,1.4c-1.7,7.7-5,9.7-9.6,12.5   c-0.2,0.2-0.4,0.4-0.5,0.5c-3.2,4.7-5.2,8.4-6.3,10.7c-0.2,0.5-0.9,0.7-1.4,0.3c-0.3-0.3-0.6-0.6-0.8-1c-1.4-3,1.2-9,3.8-14.7   c0.2-0.4,0.6-0.6,1-0.5l0,0c0.5,0.1,1-0.3,1.1-0.8l0.3-1.7c0.1-0.5-0.3-0.9-0.7-1L33,57.3c-0.3,0-0.5,0-0.8,0l-11.1,1   c-1.1,0-2-0.9-2.2-2L18.5,52c-0.1-0.5,0.3-1,0.9-1l9.1-0.1c0.5,0,0.9-0.4,0.9-0.9v-1.8c0-0.5-0.4-0.9-0.9-0.9l-9.3,0.1   c-0.5,0-0.9-0.4-0.9-0.9l0.2-3.3c0-0.5,0.4-0.8,0.9-0.8l9.1-0.1c0.5,0,0.9-0.4,0.9-0.9v-1.8c0-0.5-0.4-0.9-0.9-0.9L20.2,39   c-0.6,0-1-0.5-0.9-1.1l0.9-3.5C20.3,34,20.7,33.7,21.1,33.7z"/></g><path d="M80.4,60.5H63.5c-0.6,0-1-0.5-1-1V25.8c0-0.6,0.5-1,1-1h16.9c0.6,0,1,0.5,1,1v33.7C81.4,60.1,81,60.5,80.4,60.5z"/><path d="M15.4,56.6c0.4,3,2.9,5.3,6,5.2l0,0l11.2-0.9c0.1,0-0.1,0,0,0l1.7,0.2c0.6,0.1,0.9,0.7,0.7,1.3c-2.9,6.4-5.2,12.3-3.2,16.4  c1,1.9,2.8,3.3,5.5,3.9c0.9,0.2,1.7-0.3,2-1.1c0-0.1,1.9-4.7,6.7-11.9c0.1-0.1,0.2-0.2,0.3-0.3c4.2-2.6,8.1-5.2,10.2-12.5  c0.1-0.4,0.5-0.6,0.8-0.6c0.4,0,0.9,0,1.4,0s0.9-0.4,0.9-0.9V28.9c0-0.5-0.4-0.9-0.9-0.9h-4.4c-0.2,0-0.4-0.1-0.5-0.2l-8.1-6.2  c-0.3-0.3-0.7-0.4-1.1-0.4H23.8c-2.4,0-4.6,1.8-5.1,4.1l-1.4,6.1c0,0-2.2,8.9-2.2,9l-0.4,8.7l0,0L15.4,56.6z"/><g class="st0"><path class="st1" d="M15.5,56.6c0.4,3,2.9,5.3,6,5.2l0,0L32.7,61c0.1,0,0.1,0,0.2,0l1.5,0.2c0.6,0.1,0.9,0.7,0.7,1.2   c-2.9,6.4-5.2,12.3-3.2,16.4c1,1.9,2.8,3.3,5.5,3.9c0.9,0.2,1.7-0.3,2-1.1c0-0.1,1.9-4.7,6.7-11.9c0.1-0.1,0.2-0.2,0.3-0.3   c4.2-2.6,8.1-5.2,10.2-12.5c0.1-0.4,0.5-0.6,0.8-0.6c1.1,0,3.1,0.1,4.3,0.1c0.5,0,0.9,0.4,0.9,0.9v2.5c0,0.5,0.4,0.9,0.9,0.9   l17.2-0.1c0.5,0,0.9-0.4,0.9-0.9V25.6c0-0.5-0.4-0.9-0.9-0.9l-17.2,0.1c-0.5,0-0.9,0.4-0.9,0.9v1.6c0,0.5-0.4,0.9-0.9,0.9l-7.4-0.1   c-0.2,0-0.4-0.1-0.5-0.2l-8.1-6.2c-0.3-0.3-0.7-0.4-1.1-0.4H23.8c-2.4,0-4.6,1.8-5.1,4.1l-1.4,6.1l-2.2,8.6c0,0.1,0,0.3-0.1,0.4   l-0.4,8.6c0,0.1,0,0.1,0,0.2L15.5,56.6z M32.5,42.3c0.9,0,1.2-0.1,1.2,2.3c0,2.7-0.5,2.7-1.2,2.7l-13.2,0.2c-0.5,0-0.9-0.4-0.9-0.9   l0.2-3.3c0-0.5,0.4-0.8,0.9-0.8L32.5,42.3z M19,56.2L18.6,52c-0.1-0.5,0.4-1,0.9-1h14.2c0.9,0,1.2,0,1.2,2.6c0,1.5-0.6,3.7-2,3.8   c0,0-11.7,0.9-11.8,0.9C20.1,58.3,19.1,57.3,19,56.2z M78,28.3v27.8c0,0.5-0.4,0.9-0.9,0.9H66.8c-0.5,0-0.9-0.4-0.9-0.9l-0.2-27   c0-0.5,0.4-0.9,0.9-0.9L78,28.3L78,28.3z M52.4,31.2c0.4,0.3,0.7,0.4,1.1,0.4l8.2,0.1c0.5,0,0.9,0.4,0.9,0.9V52   c0,0.5-0.4,0.9-0.9,0.9c-1.9,0-5.4-0.1-6.4,0c-0.8,0.1-1.4,0.6-1.6,1.4c-1.7,7.7-5,9.7-9.6,12.5c-0.2,0.1-0.4,0.4-0.5,0.5   c-3.2,4.7-5.2,8.4-6.3,10.7c-0.2,0.5-0.9,0.7-1.3,0.3c-0.4-0.3-0.6-0.6-0.8-1c-1.6-3.2,1.6-9.9,4.4-15.9l0.2-0.5   c0.1-0.2,0.2-0.4,0.2-0.6c0.7-8.8,3.1-12.8,5-14.6c1.2-1.1,2.3-1.5,3-1.7c0.4-0.1,0.7-0.4,0.7-0.9v-1.8c0-0.6-0.5-1-1-0.9   c-1.1,0.2-3,0.8-4.6,2.1c-1.7,1.4-3.1,3.5-4.2,6.1c-0.2,0.6-1,0.8-1.4,0.3c-0.1-0.1-0.1-0.1-0.2-0.2c-0.2-0.2-0.3-0.6-0.2-0.9   c0.4-1.2,0.4-2.5,0.4-3.2c0-0.8,0-2.2-0.5-3.4c-0.1-0.3-0.1-0.5,0.1-0.8c0.7-1,1-2.4,1-4.3c0-1.3-0.1-2.3-0.4-3.2   c-0.1-0.3,0-0.6,0.1-0.8c0.8-1,1.3-2.7,1.3-4.9c0-0.6,0-1.1-0.1-1.6s0.4-1,0.9-1h4.2c0.2,0,0.4,0.1,0.5,0.2L52.4,31.2z M23.8,24.8   h10.5c0.5,0,1.1,0,1.1,2.6c0,2.7-0.6,2.7-1.1,2.7h-12c-0.6,0-1-0.5-0.9-1.1l0.6-2.9C22.3,25.4,23,24.8,23.8,24.8z M20.4,34.4   c0.1-0.4,0.4-0.6,0.8-0.6l12.1-0.2c0.5,0,1.1,0,1.1,2.6s-0.4,2.6-1.1,2.6l-13,0.4c-0.6,0-1-0.5-0.9-1.1L20.4,34.4z"/></g><text x="0" y="111" fill="#000000" font-size="5px" font-weight="bold" font-family="'Helvetica Neue', Helvetica, Arial-Unicode, Arial, Sans-serif"></text><text x="0" y="116" fill="#000000" font-size="5px" font-weight="bold" font-family="'Helvetica Neue', Helvetica, Arial-Unicode, Arial, Sans-serif"></text></svg>