<svg xmlns="http://www.w3.org/2000/svg" xmlns:xlink="http://www.w3.org/1999/xlink" version="1.1" x="0px" y="0px" viewBox="0 0 52 65" enable-background="new 0 0 52 52" xml:space="preserve"><g><g><path d="M37.0717163,43c-4.9912109,0-9.0522461-4.1533203-9.0522461-9.2587891    c0-5.1044922,4.0610352-9.2578125,9.0522461-9.2578125s9.0522461,4.1533203,9.0522461,9.2578125    C46.1239624,38.8466797,42.0629272,43,37.0717163,43z M37.0717163,26.4833984    c-3.8886719,0-7.0522461,3.2558594-7.0522461,7.2578125C30.0194702,37.7441406,33.1830444,41,37.0717163,41    s7.0522461-3.2558594,7.0522461-7.2587891C44.1239624,29.7392578,40.9603882,26.4833984,37.0717163,26.4833984z"/></g><g><path d="M14.9281607,43c-4.9912109,0-9.0517578-4.1533203-9.0517578-9.2587891    c0-5.1044922,4.0605464-9.2578125,9.0517578-9.2578125s9.052247,4.1533203,9.052247,9.2578125    C23.9804077,38.8466797,19.9193726,43,14.9281607,43z M14.9281607,26.4833984    c-3.8881836,0-7.0517573,3.2558594-7.0517573,7.2578125C7.8764033,37.7441406,11.0399771,41,14.9281607,41    c3.8886728,0,7.052247-3.2558594,7.052247-7.2587891C21.9804077,29.7392578,18.8168335,26.4833984,14.9281607,26.4833984z"/></g><g><path d="M26.0985718,39.4072266c-1.9091797,0-3.5214844-1.0087891-4.3642578-1.8701172l1.4262695-1.4023438    c0.2856445,0.2851563,2.8735352,2.7148438,5.8120117-0.0283203l1.3642578,1.4628906    C28.887146,38.9228516,27.4213257,39.4072266,26.0985718,39.4072266z"/></g><g><path d="M45.5800171,35.6630859l-0.9121094-1.7792969l3.3198242-1.7021484l-4.4692383-20.2636719    C43.3983765,11.3769531,42.9447632,11,42.4154663,11c-0.4272461,0-0.8134766,0.2480469-1.0078125,0.6464844l-0.4174805,0.8564453    l-1.7978516-0.8769531l0.4174805-0.8564453C40.1420288,9.6777344,41.2172241,9,42.4154663,9    c1.4746094,0,2.730957,1.0214844,3.0551758,2.484375l4.4804688,20.21875    c0.2011719,0.9082031-0.2304688,1.8369141-1.050293,2.2578125L45.5800171,35.6630859z"/></g><g><path d="M6.4203486,35.6630859l-3.3198245-1.7021484c-0.8212891-0.421875-1.2534178-1.3505859-1.0512695-2.2578125    l4.4804688-20.21875C6.8534541,10.0214844,8.109313,9,9.5844107,9c1.1982422,0,2.2729492,0.6777344,2.8056641,1.7695313    l0.4174805,0.8574219l-1.7978516,0.875l-0.4169922-0.8564453C10.3983755,11.2480469,10.0116568,11,9.5844107,11    c-0.5292969,0-0.9829102,0.3769531-1.1020508,0.9169922L4.0014033,32.1367188l3.3310547,1.7470703L6.4203486,35.6630859z"/></g></g><text x="0" y="67" fill="#000000" font-size="5px" font-weight="bold" font-family="'Helvetica Neue', Helvetica, Arial-Unicode, Arial, Sans-serif"></text><text x="0" y="72" fill="#000000" font-size="5px" font-weight="bold" font-family="'Helvetica Neue', Helvetica, Arial-Unicode, Arial, Sans-serif"></text></svg>