<svg xmlns="http://www.w3.org/2000/svg" xmlns:xlink="http://www.w3.org/1999/xlink" version="1.1" x="0px" y="0px" viewBox="0 0 512 640" style="enable-background:new 0 0 512 512;" xml:space="preserve"><g><path d="M174.704,29h-72.358c-9.941,0-18,8.059-18,18v22.77c-32.468,1.654-58.374,28.589-58.374,61.46v290.228   c0,33.935,27.607,61.542,61.542,61.542h336.973c33.935,0,61.542-27.607,61.542-61.542V131.23c0-32.871-25.906-59.806-58.374-61.46   V47c0-9.941-8.059-18-18-18h-72.358c-9.941,0-18,8.059-18,18v22.689H192.704V47C192.704,37.059,184.646,29,174.704,29z M120.346,65   h36.358v39.072h-36.358V65z M424.486,447H87.514c-14.084,0-25.542-11.458-25.542-25.542V200.873h388.057v220.585   C450.028,435.542,438.57,447,424.486,447z M355.296,65h36.358v39.072h-36.358V65z M319.296,105.689v16.383c0,9.941,8.059,18,18,18   h72.358c9.941,0,18-8.059,18-18v-16.179c12.594,1.566,22.374,12.328,22.374,25.337v33.643H61.972V131.23   c0-13.01,9.781-23.771,22.374-25.337v16.179c0,9.941,8.059,18,18,18h72.358c9.941,0,18-8.059,18-18v-16.383H319.296z"/><path d="M293.345,313.131h-21.727v-38.918c0-9.941-8.059-18-18-18s-18,8.059-18,18v56.918c0,9.941,8.059,18,18,18h39.727   c9.941,0,18-8.059,18-18S303.286,313.131,293.345,313.131z"/><path d="M256,211.248c-60.693,0-110.07,49.377-110.07,110.07S195.307,431.39,256,431.39s110.07-49.378,110.07-110.071   S316.693,211.248,256,211.248z M256,395.39c-40.843,0-74.07-33.229-74.07-74.071s33.228-74.07,74.07-74.07   s74.07,33.228,74.07,74.07S296.843,395.39,256,395.39z"/></g><text x="0" y="527" fill="#000000" font-size="5px" font-weight="bold" font-family="'Helvetica Neue', Helvetica, Arial-Unicode, Arial, Sans-serif"></text><text x="0" y="532" fill="#000000" font-size="5px" font-weight="bold" font-family="'Helvetica Neue', Helvetica, Arial-Unicode, Arial, Sans-serif"></text></svg>