<svg xmlns="http://www.w3.org/2000/svg" xmlns:xlink="http://www.w3.org/1999/xlink" version="1.1" x="0px" y="0px" viewBox="0 0 52 65" style="enable-background:new 0 0 52 52;" xml:space="preserve"><style type="text/css">
	.st0{fill:none;stroke:#000000;stroke-width:2;stroke-linecap:round;stroke-linejoin:round;stroke-miterlimit:10;}
</style><g><path d="M49,49h-6.1c-0.5,0-0.9-0.3-1-0.8l-3.6-17.9V48c0,0.6-0.4,1-1,1H14.7c-0.6,0-1-0.4-1-1V30.3l-3.6,17.9   C10,48.7,9.6,49,9.1,49H3c-0.3,0-0.6-0.1-0.8-0.3C2.1,48.4,2,48.1,2,47.8l5.7-36.4c0-0.3,0.2-0.5,0.4-0.7l10.6-7.6   c0.3-0.2,0.7-0.2,1-0.1c0.3,0.2,0.5,0.5,0.6,0.8c0.1,1.5,2.4,3,5.7,3c3.3,0,5.6-1.6,5.7-3c0-0.4,0.2-0.7,0.6-0.8   c0.3-0.2,0.7-0.1,1,0.1l10.6,7.6c0.2,0.2,0.4,0.4,0.4,0.7L50,47.8c0,0.3,0,0.6-0.2,0.8C49.6,48.9,49.3,49,49,49z M43.7,47h4.1   l-5.4-34.8l-9.1-6.6C32.2,7.6,29.4,9,26,9s-6.2-1.4-7.3-3.3l-9.1,6.6L4.2,47h4.1l5.5-26.7c0.1-0.5,0.6-0.8,1.1-0.8   c0.5,0.1,0.9,0.5,0.9,1V47h20.5V20.5c0-0.5,0.4-0.9,0.9-1c0.5-0.1,1,0.3,1.1,0.8L43.7,47z"/></g><text x="0" y="67" fill="#000000" font-size="5px" font-weight="bold" font-family="'Helvetica Neue', Helvetica, Arial-Unicode, Arial, Sans-serif"></text><text x="0" y="72" fill="#000000" font-size="5px" font-weight="bold" font-family="'Helvetica Neue', Helvetica, Arial-Unicode, Arial, Sans-serif"></text></svg>