<svg xmlns="http://www.w3.org/2000/svg" xmlns:xlink="http://www.w3.org/1999/xlink" version="1.1" x="0px" y="0px" viewBox="0 0 24 30" enable-background="new 0 0 24 24" xml:space="preserve"><g><path fill="#000000" d="M18.789,3.97l-2.026,2.027l-0.841-0.841l-0.952-0.952l2.026-2.026c0.247-0.247,0.384-0.557,0.384-0.873   c0-0.316-0.137-0.626-0.383-0.872c-0.493-0.492-1.25-0.493-1.745,0l-2.026,2.026l-1.25-1.25c-0.262-0.262-0.777-0.262-1.039,0   l-0.707,0.708c-0.131,0.131-0.206,0.32-0.205,0.52c0,0.199,0.075,0.388,0.205,0.518L10.3,3.024L7.634,5.689   c-0.806,0.806-0.806,2.118,0,2.924L7.985,8.93c0.019,0.037,0.038,0.073,0.069,0.104L8.53,9.51L8.224,9.817   c-0.412,0.413-0.493,0.958-0.242,1.422L7.28,11.94c-0.276,0.276-0.276,0.761,0,1.038l0.072,0.072   c-1.88,1.879-2.715,2.718-3.026,3.13l-0.052-0.052c-1.41,1.405-1.315,2.575-0.987,3.308c0.27,0.605,0.707,1.032,1.304,1.27   c0.885,0.341,1.707,0.116,2.757-0.753c0.277-0.228,0.596-0.531,0.943-0.863l0.214-0.205c1.797-1.723,3.277-2.951,4.637-1.831   c0.49,0.406,0.78,0.89,0.86,1.437c0.312,2.164-2.731,4.713-2.762,4.738c-0.171,0.141-0.194,0.393-0.053,0.563   c0.079,0.095,0.192,0.145,0.308,0.145c0.09,0,0.181-0.03,0.255-0.092c0.14-0.116,3.419-2.866,3.043-5.469   c-0.109-0.75-0.493-1.403-1.142-1.939c-2.02-1.666-4.147,0.38-5.7,1.87l-0.213,0.204c-0.332,0.317-0.635,0.606-0.899,0.825   c-1.05,0.867-1.564,0.777-1.955,0.625C4.48,19.801,4.205,19.53,4.018,19.11c-0.332-0.744-0.063-1.534,0.821-2.416   c0.003-0.003,0.006-0.006,0.009-0.009c0.133-0.135,2.305-2.305,3.071-3.07l0.07,0.07c0.262,0.261,0.778,0.26,1.036,0l0.703-0.702   c0.457,0.245,1.025,0.152,1.421-0.242l0.259-0.353L11.72,12.7c0.001,0.001,0.002,0.001,0.003,0.002l0.629,0.629   c0.39,0.39,0.909,0.604,1.462,0.604c0.554,0,1.073-0.214,1.463-0.604l2.665-2.665l0.07,0.07c0.262,0.262,0.777,0.262,1.039,0   l0.706-0.707c0.131-0.13,0.206-0.319,0.206-0.518c0.001-0.199-0.074-0.389-0.205-0.52L18.615,7.85l-0.109-0.109l2.026-2.026   c0.247-0.247,0.384-0.557,0.384-0.873c0-0.316-0.137-0.626-0.383-0.873C20.04,3.477,19.283,3.477,18.789,3.97z M15.817,0.997   c0.135-0.137,0.477-0.136,0.613,0c0.067,0.067,0.148,0.175,0.148,0.306c0,0.131-0.081,0.239-0.149,0.307l-2.026,2.026L13.79,3.024   L15.817,0.997z M8.554,13.12l-0.339-0.295c-0.01-0.014-0.016-0.03-0.028-0.042C8.161,12.757,8.13,12.742,8.1,12.725l-0.253-0.22   l0.66-0.66l0.629,0.629L8.554,13.12z M10.582,12.176c-0.136,0.135-0.479,0.134-0.612,0l-1.18-1.18   c-0.198-0.198-0.198-0.416,0-0.614l0.306-0.307l1.793,1.793L10.582,12.176z M14.71,12.766c-0.476,0.476-1.314,0.478-1.792,0   l-0.943-0.943c-0.001-0.001-0.002-0.001-0.003-0.002L9.144,8.992l0,0L8.2,8.048c-0.494-0.495-0.494-1.299,0-1.793l2.665-2.665   l6.51,6.51L14.71,12.766z M18.578,10.171l-0.153-0.153c0,0-0.001-0.001-0.001-0.001l-7.397-7.397   c-0.05-0.05-0.111-0.078-0.174-0.096l-0.057-0.042l0.613-0.708l1.101,1.101c0,0,0.001,0.001,0.001,0.001l6.065,6.066   c0.046,0.046,0.101,0.074,0.159,0.093l0.457,0.429L18.578,10.171z M19.968,5.149l-2.027,2.027l-0.613-0.613l2.027-2.027   c0.135-0.135,0.477-0.136,0.613,0c0.067,0.067,0.148,0.175,0.148,0.307C20.117,4.973,20.036,5.081,19.968,5.149z"/><path fill="#000000" d="M11.974,6.431c-0.156-0.156-0.41-0.156-0.566,0s-0.156,0.409,0,0.565l2.351,2.351   c0.078,0.078,0.181,0.117,0.283,0.117s0.205-0.039,0.283-0.117c0.156-0.156,0.156-0.409,0-0.565L11.974,6.431z"/><path fill="#000000" d="M10.917,7.487c-0.156-0.156-0.41-0.156-0.566,0s-0.156,0.409,0,0.565l2.351,2.351   c0.078,0.078,0.181,0.117,0.283,0.117s0.205-0.039,0.283-0.117c0.156-0.156,0.156-0.409,0-0.565L10.917,7.487z"/></g><text x="0" y="39" fill="#000000" font-size="5px" font-weight="bold" font-family="'Helvetica Neue', Helvetica, Arial-Unicode, Arial, Sans-serif"></text><text x="0" y="44" fill="#000000" font-size="5px" font-weight="bold" font-family="'Helvetica Neue', Helvetica, Arial-Unicode, Arial, Sans-serif"></text></svg>