<svg xmlns="http://www.w3.org/2000/svg" xmlns:xlink="http://www.w3.org/1999/xlink" version="1.1" x="0px" y="0px" viewBox="0 0 24 30" enable-background="new 0 0 24 24" xml:space="preserve"><g><path d="M21.038,10.872c-1.781-0.134-3.385-0.513-4.789-1.13c0.135-0.391,0.184-0.705,0.188-0.731   c0.03-0.219-0.121-0.422-0.34-0.453c-0.219-0.024-0.421,0.12-0.453,0.34c-0.015,0.108-0.063,0.3-0.13,0.508   c-0.293-0.152-0.584-0.323-0.869-0.508c0.208-0.499,0.279-0.945,0.284-0.977c0.03-0.219-0.121-0.421-0.34-0.452   c-0.217-0.034-0.421,0.121-0.452,0.339c-0.019,0.128-0.078,0.367-0.17,0.623c-0.306-0.224-0.597-0.454-0.869-0.679   c0.163-0.436,0.22-0.801,0.224-0.829c0.031-0.219-0.12-0.421-0.339-0.453c-0.215-0.036-0.421,0.12-0.452,0.339   c-0.012,0.085-0.044,0.223-0.088,0.378c-0.683-0.613-1.128-1.084-1.13-1.084c-0.28-0.409-0.729-0.722-1.22-0.855   C9.033,4.931,7.775,5.642,7.38,6.832c-0.1,0.611-0.599,1.382-0.98,1.501C6.009,8.468,5.648,8.442,5.463,8.311   c-0.015-0.015-0.029-0.03-0.044-0.055C5.414,8.246,5.408,8.235,5.402,8.225C5.389,8.198,5.376,8.161,5.363,8.11   C5.077,7.318,4.368,6.816,3.514,6.8C2.869,6.787,2.313,7.056,1.907,7.576C1.596,8.023,1.46,8.486,1.431,8.805   c-0.316,0.643-0.539,1.4-0.703,2.144c-0.002,0.009-0.007,0.016-0.008,0.025c0,0.003,0.001,0.005,0.001,0.008   c-0.313,1.43-0.395,2.799-0.412,3.174c-0.007,0.014-0.009,0.027-0.016,0.041c-0.002,0.004-0.006,0.007-0.008,0.011   c-0.002,0.005-0.001,0.011-0.003,0.017c-0.605,1.259,0.122,2.463,0.37,2.869c0.008,0.013,0.016,0.024,0.024,0.036   c0.636,0.827,1.752,1.298,3.144,1.325c0.678-0.004,1.262-0.086,1.48-0.124c0.714-0.119,1.509-0.089,2.352-0.055   c0.286,0.011,0.577,0.022,0.869,0.028c1.73,0.033,3.631,0.184,5.307,0.315c1.395,0.11,2.625,0.208,3.414,0.208   c0.128,0,0.245-0.003,0.349-0.009c1.073-0.038,1.884-0.169,2.551-0.412c2.091-0.76,3.338-1.883,3.706-3.336   c0.339-1.337-0.201-2.587-0.61-3.047C22.353,10.934,21.046,10.872,21.038,10.872z M6.647,9.094c0.809-0.252,1.403-1.401,1.506-2.07   c0.244-0.723,1.053-1.205,1.721-1.006c0.315,0.085,0.606,0.286,0.815,0.583c0.049,0.053,0.602,0.644,1.423,1.365   c-0.088,0.141-0.191,0.27-0.312,0.369c-0.171,0.14-0.195,0.393-0.055,0.563c0.079,0.097,0.193,0.146,0.309,0.146   c0.09,0,0.18-0.03,0.254-0.092c0.164-0.135,0.296-0.299,0.413-0.47c0.268,0.219,0.554,0.44,0.852,0.656   c-0.055,0.067-0.103,0.144-0.167,0.197c-0.17,0.141-0.194,0.393-0.054,0.563c0.079,0.096,0.193,0.146,0.309,0.146   c0.09,0,0.18-0.03,0.255-0.092c0.127-0.104,0.234-0.227,0.332-0.356c0.301,0.193,0.608,0.372,0.919,0.532   c-0.076,0.109-0.155,0.216-0.252,0.296c-0.171,0.14-0.195,0.393-0.055,0.563c0.079,0.097,0.193,0.146,0.309,0.146   c0.09,0,0.18-0.03,0.254-0.092c0.197-0.162,0.357-0.363,0.487-0.573c0.006,0.002,0.012,0.005,0.018,0.008   c1.473,0.65,3.172,1.053,5.065,1.194c0.01,0.001,0.972,0.057,1.633,0.872c0.074,0.084,0.166,0.228,0.253,0.417   c-0.005,0.005-0.01,0.009-0.014,0.014c-0.022,0.025-2.301,2.447-5.781,2.471c-0.869,0.013-2.42-0.125-3.791-0.25   c-0.474-0.044-0.935-0.086-1.356-0.121c-0.285-1.723-1.815-3.378-3.501-3.715c-0.799-0.159-2.33-0.872-2.823-2.164   C5.933,9.245,6.291,9.216,6.647,9.094z M2.182,9.092C2.21,9.038,2.224,8.978,2.226,8.918c0.003-0.152,0.077-0.511,0.324-0.867   C2.716,7.84,3.027,7.548,3.499,7.6C4.014,7.609,4.44,7.909,4.597,8.336c0.017,0.074,0.039,0.14,0.064,0.197   c0.128,2.127,2.274,3.341,3.618,3.609c1.323,0.264,2.558,1.589,2.836,2.949c-1.031,0.098-3.893,0.295-6.809-0.156   c0.036-0.197,0.061-0.397,0.065-0.6c0.033-1.728-1.133-3.201-2.767-3.612C1.755,10.136,1.941,9.565,2.182,9.092z M1.112,14.109   c0.021-0.537,0.11-1.542,0.318-2.609c1.266,0.329,2.168,1.476,2.141,2.819c-0.003,0.162-0.023,0.32-0.052,0.476   C2.692,14.632,1.879,14.406,1.112,14.109z M23.071,14.875c-0.3,1.181-1.377,2.116-3.204,2.78c-0.587,0.214-1.319,0.329-2.313,0.365   c-0.704,0.037-2.074-0.072-3.665-0.197c-1.687-0.134-3.6-0.284-5.354-0.319c-0.287-0.005-0.572-0.017-0.854-0.027   c-0.391-0.015-0.771-0.03-1.146-0.03c-0.475,0-0.938,0.024-1.399,0.101c-0.174,0.03-0.711,0.126-1.303,0.107   c-1.134-0.021-2.024-0.375-2.512-0.996c-0.304-0.5-0.592-1.129-0.431-1.78c0.894,0.341,1.838,0.59,2.787,0.763   c0.005,0.002,0.008,0.006,0.013,0.007c0.041,0.013,0.082,0.02,0.123,0.02c0.003,0,0.005-0.003,0.008-0.003   c1.565,0.274,3.125,0.362,4.435,0.362c1.786,0,3.094-0.152,3.329-0.181c0.491,0.039,1.052,0.09,1.633,0.142   c1.461,0.134,2.971,0.268,3.875,0.255c3.074-0.021,5.243-1.693,6.033-2.411C23.17,14.153,23.164,14.51,23.071,14.875z"/></g><text x="0" y="39" fill="#000000" font-size="5px" font-weight="bold" font-family="'Helvetica Neue', Helvetica, Arial-Unicode, Arial, Sans-serif"></text><text x="0" y="44" fill="#000000" font-size="5px" font-weight="bold" font-family="'Helvetica Neue', Helvetica, Arial-Unicode, Arial, Sans-serif"></text></svg>