<svg xmlns="http://www.w3.org/2000/svg" xmlns:xlink="http://www.w3.org/1999/xlink" version="1.0" x="0px" y="0px" viewBox="0 0 100 125" enable-background="new 0 0 100 100" xml:space="preserve"><path d="M79.3163605,68.5346985l-3.1834641,2.0757675c-16.652668,10.0437241-35.5021133,10.0064926-52.1733971-0.0093079  c-8.6288567-5.184761-16.8016033-13.3575096-16.8016033-20.5901108c0-6.1900635,4.8124261-11.85886,13.5716-18.4864159  c7.2698345-5.5105534,18.9239082-9.6527767,29.3492813-9.6527767c10.4346771,0,21.9677467,4.1142979,29.2282753,9.6062355  c9.3269806,7.0464344,14.2511063,12.9572468,13.4505844,20.3480892  C92.2922211,56.0987206,87.2377777,62.9403687,79.3163605,68.5346985z M75.4440765,66.347229  c-4.5890274-9.2618217-4.5890274-23.4105377,0-32.6816711C59.275444,23.2494926,40.7611008,23.2960358,24.5924683,33.7027893  c4.5797157,9.233902,4.5797157,23.3733101,0,32.6165161C40.7611008,76.726059,59.275444,76.7726059,75.4440765,66.347229z   M78.7485504,35.9833412c-3.6861191,7.9400368-3.6861191,20.1153793,0,28.0554161  C92.1991348,53.7902451,92.1991348,46.2318535,78.7485504,35.9833412z M21.2973061,36.0112648  c-13.4785156,10.2392044-13.4785156,17.7603645,0,27.9995689C24.9554939,56.0428696,24.9554939,43.9792252,21.2973061,36.0112648z"/><path d="M32.765213,52.0030403c-2.624958,0-2.624958-3.9839821,0-3.9839821h1.5824242  c0-1.1263123,0.0465431-2.8949013,1.9919891-2.8949013c1.9547577,0,1.991993,1.768589,1.991993,2.8949013h2.857666  c0-1.8989067-0.4840355-4.8124275,1.991993-4.8124275c2.4667168,0,1.9919891,2.9135208,1.9919891,4.8124275h2.848362  c0-3.0996857-0.679512-6.72995,1.9919891-6.72995s1.9919891,3.6302643,1.9919891,6.72995h2.848362  c0-1.8989067-0.4747276-4.8124275,1.9919891-4.8124275c2.4760284,0,1.991993,2.9135208,1.991993,4.8124275h2.8483582  c0-1.1263123,0.0465431-2.8949013,1.991993-2.8949013c1.9547539,0,2.0013008,1.768589,2.0013008,2.8949013  c1.1914673,0,3.5744095-0.2699432,3.5744095,1.9919891c0,2.2619362-2.3829422,1.991993-3.5744095,1.991993  c0,1.1263123-0.0465469,2.8949013-2.0013008,2.8949013c-1.9454498,0-1.991993-1.768589-1.991993-2.8949013h-2.8483582  c0,1.8895988,0.4840355,4.8124237-1.991993,4.8124237c-2.4667168,0-1.9919891-2.9228249-1.9919891-4.8124237h-2.848362  c0,3.0996857,0.679512,6.72995-1.9919891,6.72995s-1.9919891-3.6302643-1.9919891-6.72995h-2.848362  c0,1.8895988,0.4747276,4.8124237-1.9919891,4.8124237c-2.4760284,0-1.991993-2.9228249-1.991993-4.8124237h-2.857666  c0,1.1263123-0.0372353,2.8949013-1.991993,2.8949013c-1.945446,0-1.9919891-1.768589-1.9919891-2.8949013H32.765213z"/><text x="0" y="115" fill="#000000" font-size="5px" font-weight="bold" font-family="'Helvetica Neue', Helvetica, Arial-Unicode, Arial, Sans-serif"></text><text x="0" y="120" fill="#000000" font-size="5px" font-weight="bold" font-family="'Helvetica Neue', Helvetica, Arial-Unicode, Arial, Sans-serif"></text></svg>